<?xml version="1.0" encoding="UTF-8" standalone="no"?>
<svg
   width="482.39529"
   height="145.78102"
   viewBox="0 0 482.39532 145.78102"
   version="1.1"
   id="svg95"
   sodipodi:docname="nvim-haskell.svg"
   inkscape:version="1.2.2 (b0a8486541, 2022-12-01)"
   xmlns:inkscape="http://www.inkscape.org/namespaces/inkscape"
   xmlns:sodipodi="http://sodipodi.sourceforge.net/DTD/sodipodi-0.dtd"
   xmlns="http://www.w3.org/2000/svg"
   xmlns:svg="http://www.w3.org/2000/svg"
   xmlns:rdf="http://www.w3.org/1999/02/22-rdf-syntax-ns#"
   xmlns:cc="http://creativecommons.org/ns#"
   xmlns:dc="http://purl.org/dc/elements/1.1/"
   xmlns:sketch="http://www.bohemiancoding.com/sketch/ns">
  <sodipodi:namedview
     id="namedview97"
     pagecolor="#505050"
     bordercolor="#ffffff"
     borderopacity="1"
     inkscape:showpageshadow="0"
     inkscape:pageopacity="0"
     inkscape:pagecheckerboard="1"
     inkscape:deskcolor="#505050"
     showgrid="false"
     inkscape:zoom="5.2752044"
     inkscape:cx="243.49767"
     inkscape:cy="64.262913"
     inkscape:window-width="1920"
     inkscape:window-height="1080"
     inkscape:window-x="0"
     inkscape:window-y="0"
     inkscape:window-maximized="1"
     inkscape:current-layer="g394" />
  <title
     id="title70">neovim-mark@2x</title>
  <description>Created with Sketch (http://www.bohemiancoding.com/sketch)</description>
  <defs
     id="defs87">
    <linearGradient
       x1="167.95833"
       y1="-0.46142399"
       x2="167.95833"
       y2="335.45523"
       id="linearGradient-1"
       gradientTransform="scale(0.46142398,2.1672042)"
       gradientUnits="userSpaceOnUse">
      <stop
         stop-color="#16B0ED"
         stop-opacity="0.800235524"
         offset="0%"
         id="stop72" />
      <stop
         stop-color="#0F59B2"
         stop-opacity="0.83700023"
         offset="100%"
         id="stop74" />
    </linearGradient>
    <linearGradient
       x1="1118.3427"
       y1="-0.46586797"
       x2="1118.3427"
       y2="338.68604"
       id="linearGradient-2"
       gradientTransform="scale(0.46586797,2.1465309)"
       gradientUnits="userSpaceOnUse">
      <stop
         stop-color="#7DB643"
         offset="0%"
         id="stop77" />
      <stop
         stop-color="#367533"
         offset="100%"
         id="stop79" />
    </linearGradient>
    <linearGradient
       x1="356.33795"
       y1="0"
       x2="356.33795"
       y2="612.90131"
       id="linearGradient-3"
       gradientTransform="scale(0.84189739,1.1877932)"
       gradientUnits="userSpaceOnUse">
      <stop
         stop-color="#88C649"
         stop-opacity="0.8"
         offset="0%"
         id="stop82" />
      <stop
         stop-color="#439240"
         stop-opacity="0.84"
         offset="100%"
         id="stop84" />
    </linearGradient>
    <linearGradient
       x1="49.021549"
       y1="-0.079835393"
       x2="49.021549"
       y2="97.845657"
       id="linearGradient-1-2"
       gradientTransform="scale(0.46153975,2.1666606)"
       gradientUnits="userSpaceOnUse">
      <stop
         stop-color="#16B0ED"
         stop-opacity="0.800235524"
         offset="0%"
         id="stop5136" />
      <stop
         stop-color="#0F59B2"
         stop-opacity="0.83700023"
         offset="100%"
         id="stop5138" />
    </linearGradient>
    <linearGradient
       x1="326.17365"
       y1="-0.069164939"
       x2="326.17365"
       y2="98.851547"
       id="linearGradient-2-2"
       gradientTransform="scale(0.46628455,2.1446132)"
       gradientUnits="userSpaceOnUse">
      <stop
         stop-color="#7DB643"
         offset="0%"
         id="stop5141" />
      <stop
         stop-color="#367533"
         offset="100%"
         id="stop5143" />
    </linearGradient>
    <linearGradient
       x1="103.88479"
       y1="-0.11508822"
       x2="103.88479"
       y2="178.55785"
       id="linearGradient-3-8"
       gradientTransform="scale(0.84203823,1.1875945)"
       gradientUnits="userSpaceOnUse">
      <stop
         stop-color="#88C649"
         stop-opacity="0.8"
         offset="0%"
         id="stop5146" />
      <stop
         stop-color="#439240"
         stop-opacity="0.84"
         offset="100%"
         id="stop5148" />
    </linearGradient>
    <linearGradient
       id="_Linear1"
       x1="0"
       y1="0"
       x2="1"
       y2="0"
       gradientUnits="userSpaceOnUse"
       gradientTransform="matrix(1,0,0,-1,0,-6.50515e-4)">
      <stop
         offset="0"
         style="stop-color:rgb(247,76,0);stop-opacity:1"
         id="stop505" />
      <stop
         offset="0.33"
         style="stop-color:rgb(247,76,0);stop-opacity:1"
         id="stop507" />
      <stop
         offset="1"
         style="stop-color:rgb(244,150,0);stop-opacity:1"
         id="stop509" />
    </linearGradient>
    <linearGradient
       id="_Linear2"
       x1="0"
       y1="0"
       x2="1"
       y2="0"
       gradientUnits="userSpaceOnUse"
       gradientTransform="matrix(1,0,0,-1,0,1.23438e-6)">
      <stop
         offset="0"
         style="stop-color:rgb(204,58,0);stop-opacity:1"
         id="stop512" />
      <stop
         offset="0.15"
         style="stop-color:rgb(204,58,0);stop-opacity:1"
         id="stop514" />
      <stop
         offset="0.74"
         style="stop-color:rgb(247,76,0);stop-opacity:1"
         id="stop516" />
      <stop
         offset="1"
         style="stop-color:rgb(247,76,0);stop-opacity:1"
         id="stop518" />
    </linearGradient>
    <linearGradient
       id="_Linear3"
       x1="0"
       y1="0"
       x2="1"
       y2="0"
       gradientUnits="userSpaceOnUse"
       gradientTransform="scale(1,-1)">
      <stop
         offset="0"
         style="stop-color:rgb(204,58,0);stop-opacity:1"
         id="stop521" />
      <stop
         offset="0.15"
         style="stop-color:rgb(204,58,0);stop-opacity:1"
         id="stop523" />
      <stop
         offset="0.74"
         style="stop-color:rgb(247,76,0);stop-opacity:1"
         id="stop525" />
      <stop
         offset="1"
         style="stop-color:rgb(247,76,0);stop-opacity:1"
         id="stop527" />
    </linearGradient>
  </defs>
  <metadata
     id="metadata14713">
    <rdf:RDF>
      <cc:Work
         rdf:about="">
        <dc:title>neovim-mark@2x</dc:title>
      </cc:Work>
    </rdf:RDF>
  </metadata>
  <g
     aria-label="haskell-tools.nvim"
     id="text4483"
     style="font-weight:bold;font-size:33.4748px;font-family:Lato;-inkscape-font-specification:'Lato Bold';fill:#1a1a1a;stroke-width:1.39478"
     transform="translate(190.05249,176.17254)">
    <g
       id="g5925"
       transform="matrix(1.6576683,0,0,1.6576683,-217.36825,0)">
      <g
         id="g8863"
         transform="matrix(0.81614217,0,0,0.81614217,-10.014267,-7.820178)">
        <g
           id="g8883"
           transform="matrix(1.1279055,0,0,1.1279055,-4.1519251,6.1388671)">
          <path
             d="m 34.454608,-34.37151 q 1.432994,-1.744514 3.26058,-2.782915 1.848353,-1.038401 4.132835,-1.038401 1.702978,0 2.990596,0.539969 1.308385,0.539968 2.159875,1.557601 0.851488,1.017633 1.287616,2.450627 0.436129,1.432994 0.436129,3.23981 v 13.208463 h -1.993731 v -13.208463 q 0,-2.907522 -1.329152,-4.548195 -1.329154,-1.661442 -4.049764,-1.661442 -2.014499,0 -3.77978,1.038401 -1.744515,1.017632 -3.115204,2.845219 v 15.53448 h -1.993729 v -30.217472 h 1.993729 z"
             style="font-weight:300;-inkscape-font-specification:'Lato Light';fill:#444444;fill-opacity:1;stroke-width:1.73066"
             id="path5794" />
          <path
             d="m 66.873457,-27.185775 q -2.94906,0.103844 -5.088166,0.477665 -2.118338,0.353056 -3.509795,0.976096 -1.370689,0.623041 -2.035266,1.495298 -0.664576,0.85149 -0.664576,1.952195 0,1.038401 0.332288,1.806818 0.353056,0.747648 0.913793,1.246081 0.581504,0.477664 1.329153,0.706112 0.747649,0.228449 1.557601,0.228449 1.204545,0 2.201411,-0.249217 1.017633,-0.269984 1.869122,-0.72688 0.872256,-0.477665 1.619906,-1.121474 0.747648,-0.643808 1.474529,-1.391458 z m -12.149293,-7.746472 q 1.619906,-1.619905 3.405956,-2.450626 1.786049,-0.830721 4.049764,-0.830721 1.661442,0 2.907523,0.539968 1.246081,0.519201 2.056034,1.516067 0.83072,0.976096 1.246081,2.388322 0.41536,1.391456 0.41536,3.115203 v 13.457678 h -0.789184 q -0.623041,0 -0.768417,-0.581505 l -0.290752,-2.658307 q -0.851489,0.830721 -1.702978,1.495297 -0.830721,0.664577 -1.744514,1.121474 -0.913792,0.456897 -1.972962,0.706112 -1.059169,0.249217 -2.326018,0.249217 -1.059169,0 -2.056034,-0.311521 -0.996865,-0.31152 -1.786049,-0.955328 -0.768417,-0.64381 -1.246082,-1.640674 -0.456896,-1.017633 -0.456896,-2.429859 0,-1.308385 0.747648,-2.429858 0.74765,-1.121473 2.346786,-1.952194 1.599138,-0.830721 4.0913,-1.329154 2.512932,-0.498432 6.022727,-0.581504 v -2.159874 q 0,-2.865988 -1.246082,-4.402821 -1.225312,-1.557601 -3.655171,-1.557601 -1.495298,0 -2.554466,0.41536 -1.038401,0.415361 -1.765282,0.913792 -0.726881,0.498433 -1.183777,0.913794 -0.456897,0.41536 -0.768417,0.41536 -0.228448,0 -0.373825,-0.103843 -0.145376,-0.103844 -0.249216,-0.269985 z"
             style="font-weight:300;-inkscape-font-specification:'Lato Light';fill:#444444;fill-opacity:1;stroke-width:1.73066"
             id="path5796" />
          <path
             d="m 86.769191,-35.306071 q -0.166145,0.290753 -0.477666,0.290753 -0.228447,0 -0.581504,-0.249217 -0.353057,-0.269984 -0.955328,-0.581504 -0.581505,-0.332289 -1.453762,-0.581506 -0.872257,-0.269984 -2.118338,-0.269984 -1.121474,0 -2.056035,0.332289 -0.913792,0.311521 -1.578369,0.851489 -0.643808,0.539968 -0.996865,1.266849 -0.353056,0.706113 -0.353056,1.495297 0,0.976098 0.498433,1.619906 0.498431,0.643809 1.287616,1.100706 0.809953,0.456895 1.848354,0.789184 1.038401,0.332288 2.09757,0.664577 1.079937,0.332288 2.118338,0.747649 1.038401,0.394593 1.827586,0.996864 0.809953,0.602274 1.308386,1.474531 0.498432,0.872256 0.498432,2.118337 0,1.349921 -0.477664,2.512931 -0.477664,1.163009 -1.412225,2.014498 -0.913794,0.851489 -2.263715,1.349922 -1.349922,0.498432 -3.094435,0.498432 -2.180642,0 -3.759012,-0.685345 -1.578369,-0.706113 -2.824451,-1.827585 l 0.456897,-0.706114 q 0.103844,-0.166144 0.228448,-0.249216 0.145376,-0.08307 0.373824,-0.08307 0.269984,0 0.643809,0.332288 0.394592,0.332289 1.038401,0.726881 0.643809,0.373824 1.57837,0.706113 0.955328,0.332288 2.346786,0.332288 1.308385,0 2.305251,-0.353057 0.996865,-0.373824 1.661442,-0.996864 0.664575,-0.623041 0.996864,-1.453762 0.353057,-0.851488 0.353057,-1.786049 0,-1.038401 -0.498433,-1.723746 -0.498433,-0.685346 -1.308385,-1.16301 -0.809953,-0.477667 -1.848355,-0.809955 -1.017632,-0.332289 -2.097569,-0.664577 -1.079938,-0.332289 -2.118339,-0.726881 -1.017633,-0.394592 -1.827585,-0.996864 -0.809954,-0.602273 -1.308385,-1.453762 -0.498433,-0.872257 -0.498433,-2.159875 0,-1.100704 0.477664,-2.118338 0.477664,-1.017632 1.349921,-1.786049 0.893025,-0.768417 2.159875,-1.225314 1.266849,-0.456896 2.845219,-0.456896 1.88989,0 3.343651,0.539969 1.474529,0.539968 2.679075,1.661441 z"
             style="font-weight:300;-inkscape-font-specification:'Lato Light';fill:#444444;fill-opacity:1;stroke-width:1.73066"
             id="path5798" />
          <path
             d="m 95.0556,-47.413828 v 18.421236 h 0.955328 q 0.290753,0 0.539969,-0.08307 0.269984,-0.08307 0.581505,-0.394593 l 8.286448,-7.871082 q 0.20767,-0.249216 0.45689,-0.373824 0.24922,-0.145376 0.62304,-0.145376 h 1.74451 l -9.117164,8.660265 q -0.37382,0.436128 -0.809947,0.685344 0.332283,0.166144 0.560742,0.394592 0.249205,0.20768 0.477664,0.498433 l 9.574055,10.425547 h -1.72375 q -0.29075,0 -0.53997,-0.08307 -0.22844,-0.103844 -0.43612,-0.394591 l -8.681038,-9.304075 q -0.166144,-0.186911 -0.332289,-0.31152 -0.145375,-0.124608 -0.31152,-0.186912 -0.166144,-0.08307 -0.394592,-0.103844 -0.20768,-0.04153 -0.5192,-0.04153 H 95.0556 v 10.425544 h -1.993731 v -30.217474 z"
             style="font-weight:300;-inkscape-font-specification:'Lato Light';fill:#444444;fill-opacity:1;stroke-width:1.73066"
             id="path5800" />
          <path
             d="m 125.99996,-29.615633 q 0,-1.661441 -0.47766,-2.969828 -0.45689,-1.329152 -1.30839,-2.242946 -0.85148,-0.913792 -2.03526,-1.391457 -1.16302,-0.498432 -2.57524,-0.498432 -1.59914,0 -2.86598,0.498432 -1.26685,0.498433 -2.20142,1.432993 -0.91379,0.934561 -1.47452,2.242947 -0.56074,1.308385 -0.74766,2.928291 z m -13.78997,1.266849 v 0.394593 q 0,2.326017 0.53998,4.091299 0.53996,1.765282 1.53682,2.969828 0.99687,1.183776 2.40909,1.78605 1.41224,0.602273 3.15675,0.602273 1.5576,0 2.69984,-0.332289 1.14225,-0.353057 1.91066,-0.768417 0.78918,-0.436128 1.24607,-0.768416 0.45691,-0.353057 0.66458,-0.353057 0.26999,0 0.41537,0.20768 l 0.53996,0.664577 q -0.49843,0.623041 -1.32915,1.163009 -0.80995,0.539968 -1.82758,0.934561 -0.99687,0.373824 -2.15987,0.602273 -1.14225,0.228448 -2.30525,0.228448 -2.11835,0 -3.86286,-0.726881 -1.74451,-0.747648 -2.9906,-2.159875 -1.24608,-1.412225 -1.93142,-3.447491 -0.66458,-2.056034 -0.66458,-4.693572 0,-2.222179 0.62304,-4.0913 0.64381,-1.889891 1.82759,-3.239813 1.20454,-1.370688 2.92829,-2.139105 1.74452,-0.768417 3.94592,-0.768417 1.74451,0 3.23982,0.602273 1.49529,0.602273 2.596,1.765281 1.1007,1.142242 1.72375,2.824451 0.6438,1.68221 0.6438,3.862853 0,0.456896 -0.12461,0.62304 -0.1246,0.166144 -0.41536,0.166144 z"
             style="font-weight:300;-inkscape-font-specification:'Lato Light';fill:#444444;fill-opacity:1;stroke-width:1.73066"
             id="path5802" />
          <path
             d="m 135.34556,-47.413828 v 30.217472 h -1.99373 v -30.217472 z"
             style="font-weight:300;-inkscape-font-specification:'Lato Light';fill:#444444;fill-opacity:1;stroke-width:1.73066"
             id="path5804" />
          <path
             d="m 144.52505,-47.413828 v 30.217472 h -1.99373 v -30.217472 z"
             style="font-weight:300;-inkscape-font-specification:'Lato Light';fill:#444444;fill-opacity:1;stroke-width:1.73066"
             id="path5806" />
          <path
             d="m 150.98394,-30.363282 h 9.65713 v 1.68221 h -9.65713 z"
             style="font-weight:300;-inkscape-font-specification:'Lato Light';fill:#444444;fill-opacity:1;stroke-width:1.73066"
             id="path5808" />
          <path
             d="m 172.54119,-16.864068 q -2.09758,0 -3.28135,-1.163009 -1.16302,-1.16301 -1.16302,-3.592868 v -14.122254 h -2.96983 q -0.22844,0 -0.37382,-0.124609 -0.14537,-0.124607 -0.14537,-0.353056 v -0.768416 l 3.53056,-0.249217 0.49843,-7.393416 q 0.0416,-0.186912 0.16614,-0.332288 0.12462,-0.145376 0.35306,-0.145376 h 0.93456 v 7.891848 h 6.52117 v 1.47453 h -6.52117 v 14.018414 q 0,0.851489 0.20769,1.474529 0.22845,0.602274 0.60227,0.996865 0.39459,0.394593 0.91379,0.581505 0.5192,0.186912 1.12148,0.186912 0.74764,0 1.28762,-0.20768 0.53996,-0.228448 0.93455,-0.477664 0.3946,-0.269984 0.64381,-0.477664 0.24922,-0.228449 0.39459,-0.228449 0.16615,0 0.3323,0.20768 l 0.53996,0.872257 q -0.78918,0.872257 -2.0145,1.412225 -1.20455,0.519201 -2.51292,0.519201 z"
             style="font-weight:300;-inkscape-font-specification:'Lato Light';fill:#444444;fill-opacity:1;stroke-width:1.73066"
             id="path5810" />
          <path
             d="m 189.23873,-38.192826 q 2.22218,0 3.9667,0.768417 1.76528,0.747649 2.96982,2.139105 1.20454,1.391458 1.82759,3.36442 0.64381,1.952195 0.64381,4.382053 0,2.429858 -0.64381,4.382052 -0.62305,1.952195 -1.82759,3.343651 -1.20454,1.391458 -2.96982,2.139108 -1.74452,0.747648 -3.9667,0.747648 -2.22218,0 -3.98746,-0.747648 -1.74452,-0.74765 -2.96983,-2.139108 -1.20454,-1.391456 -1.84835,-3.343651 -0.62305,-1.952194 -0.62305,-4.382052 0,-2.429858 0.62305,-4.382053 0.64381,-1.972962 1.84835,-3.36442 1.22531,-1.391456 2.96983,-2.139105 1.76528,-0.768417 3.98746,-0.768417 z m 0,19.708852 q 1.84835,0 3.21904,-0.62304 1.39147,-0.643809 2.30525,-1.827586 0.93457,-1.183778 1.39146,-2.845219 0.4569,-1.682209 0.4569,-3.759012 0,-2.056034 -0.4569,-3.738243 -0.45689,-1.682211 -1.39146,-2.865988 -0.91378,-1.204545 -2.30525,-1.848353 -1.37069,-0.64381 -3.21904,-0.64381 -1.84835,0 -3.23981,0.64381 -1.37069,0.643808 -2.30525,1.848353 -0.9138,1.183777 -1.39146,2.865988 -0.45689,1.682209 -0.45689,3.738243 0,2.076803 0.45689,3.759012 0.47766,1.661441 1.39146,2.845219 0.93456,1.183777 2.30525,1.827586 1.39146,0.62304 3.23981,0.62304 z"
             style="font-weight:300;-inkscape-font-specification:'Lato Light';fill:#444444;fill-opacity:1;stroke-width:1.73066"
             id="path5812" />
          <path
             d="m 212.41588,-38.192826 q 2.22217,0 3.96668,0.768417 1.76529,0.747649 2.96983,2.139105 1.20455,1.391458 1.82759,3.36442 0.64381,1.952195 0.64381,4.382053 0,2.429858 -0.64381,4.382052 -0.62304,1.952195 -1.82759,3.343651 -1.20454,1.391458 -2.96983,2.139108 -1.74451,0.747648 -3.96668,0.747648 -2.22219,0 -3.98746,-0.747648 -1.74453,-0.74765 -2.96983,-2.139108 -1.20455,-1.391456 -1.84836,-3.343651 -0.62304,-1.952194 -0.62304,-4.382052 0,-2.429858 0.62304,-4.382053 0.64381,-1.972962 1.84836,-3.36442 1.2253,-1.391456 2.96983,-2.139105 1.76527,-0.768417 3.98746,-0.768417 z m 0,19.708852 q 1.84835,0 3.21903,-0.62304 1.39146,-0.643809 2.30525,-1.827586 0.93457,-1.183778 1.39146,-2.845219 0.4569,-1.682209 0.4569,-3.759012 0,-2.056034 -0.4569,-3.738243 -0.45689,-1.682211 -1.39146,-2.865988 -0.91379,-1.204545 -2.30525,-1.848353 -1.37068,-0.64381 -3.21903,-0.64381 -1.84836,0 -3.23982,0.64381 -1.37069,0.643808 -2.30525,1.848353 -0.91379,1.183777 -1.39146,2.865988 -0.4569,1.682209 -0.4569,3.738243 0,2.076803 0.4569,3.759012 0.47767,1.661441 1.39146,2.845219 0.93456,1.183777 2.30525,1.827586 1.39146,0.62304 3.23982,0.62304 z"
             style="font-weight:300;-inkscape-font-specification:'Lato Light';fill:#444444;fill-opacity:1;stroke-width:1.73066"
             id="path5814" />
          <path
             d="m 229.59104,-47.413828 v 30.217472 h -1.99373 v -30.217472 z"
             style="font-weight:300;-inkscape-font-specification:'Lato Light';fill:#444444;fill-opacity:1;stroke-width:1.73066"
             id="path5816" />
          <path
             d="m 247.95,-35.306071 q -0.16615,0.290753 -0.47767,0.290753 -0.22844,0 -0.58149,-0.249217 -0.35307,-0.269984 -0.95533,-0.581504 -0.58151,-0.332289 -1.45377,-0.581506 -0.87225,-0.269984 -2.11834,-0.269984 -1.12147,0 -2.05603,0.332289 -0.9138,0.311521 -1.57837,0.851489 -0.64381,0.539968 -0.99687,1.266849 -0.35305,0.706113 -0.35305,1.495297 0,0.976098 0.49842,1.619906 0.49844,0.643809 1.28762,1.100706 0.80996,0.456895 1.84836,0.789184 1.0384,0.332288 2.09757,0.664577 1.07993,0.332288 2.11833,0.747649 1.03841,0.394593 1.82759,0.996864 0.80995,0.602274 1.30839,1.474531 0.49843,0.872256 0.49843,2.118337 0,1.349921 -0.47766,2.512931 -0.47766,1.163009 -1.41222,2.014498 -0.9138,0.851489 -2.26372,1.349922 -1.34992,0.498432 -3.09443,0.498432 -2.18065,0 -3.75901,-0.685345 -1.57838,-0.706113 -2.82446,-1.827585 l 0.45689,-0.706114 q 0.10386,-0.166144 0.22845,-0.249216 0.14539,-0.08307 0.37383,-0.08307 0.26998,0 0.64381,0.332288 0.39459,0.332289 1.0384,0.726881 0.64381,0.373824 1.57837,0.706113 0.95533,0.332288 2.34679,0.332288 1.30838,0 2.30525,-0.353057 0.99686,-0.373824 1.66144,-0.996864 0.66458,-0.623041 0.99686,-1.453762 0.35306,-0.851488 0.35306,-1.786049 0,-1.038401 -0.49844,-1.723746 -0.49843,-0.685346 -1.30837,-1.16301 -0.80996,-0.477664 -1.84836,-0.809952 -1.01763,-0.332289 -2.09757,-0.664577 -1.07993,-0.332289 -2.11834,-0.726881 -1.01764,-0.394592 -1.82759,-0.996864 -0.80994,-0.602273 -1.30838,-1.453762 -0.49844,-0.872257 -0.49844,-2.159875 0,-1.100704 0.47767,-2.118338 0.47766,-1.017632 1.34992,-1.786049 0.89303,-0.768417 2.15987,-1.225314 1.26685,-0.456896 2.84523,-0.456896 1.88989,0 3.34365,0.539969 1.47452,0.539968 2.67907,1.661441 z"
             style="font-weight:300;-inkscape-font-specification:'Lato Light';fill:#444444;fill-opacity:1;stroke-width:1.73066"
             id="path5818" />
          <path
             d="m 252.62277,-20.020808 q 0,-0.643808 0.22845,-1.225312 0.24921,-0.581505 0.66458,-0.996865 0.41536,-0.415361 0.99686,-0.664577 0.5815,-0.249217 1.24608,-0.249217 0.66457,0 1.22531,0.249217 0.58151,0.249216 0.99687,0.664577 0.43612,0.41536 0.68534,0.996865 0.24922,0.581504 0.24922,1.225312 0,0.664577 -0.24922,1.246081 -0.24922,0.560737 -0.68534,0.976098 -0.41536,0.41536 -0.99687,0.643809 -0.56074,0.249215 -1.22531,0.249215 -0.66458,0 -1.24608,-0.249215 -0.5815,-0.228449 -0.99686,-0.643809 -0.41537,-0.415361 -0.66458,-0.976098 -0.22845,-0.581504 -0.22845,-1.246081 z"
             id="path5820"
             style="fill:#444444;fill-opacity:1;stroke-width:1.73066" />
          <path
             d="m 268.03262,-35.887575 q 0.64381,-0.64381 1.34992,-1.183778 0.72688,-0.560737 1.51606,-0.934561 0.80996,-0.394592 1.72374,-0.602273 0.9138,-0.228448 1.99373,-0.228448 1.74451,0 3.09443,0.602273 1.34994,0.581505 2.24295,1.661442 0.9138,1.059169 1.37069,2.554467 0.47767,1.474529 0.47767,3.260579 v 13.561518 h -5.12971 v -13.561518 q 0,-1.952194 -0.89301,-3.011363 -0.89303,-1.079937 -2.72061,-1.079937 -1.32917,0 -2.49217,0.602272 -1.16302,0.602273 -2.20142,1.640674 v 15.409872 h -5.12969 v -21.30799 h 3.13596 q 0.99688,0 1.30839,0.93456 z"
             id="path5822"
             style="fill:#444444;fill-opacity:1;stroke-width:1.73066" />
          <path
             d="m 305.39428,-38.504346 -8.45258,21.30799 h -4.65204 l -8.45258,-21.30799 h 4.23668 q 0.58149,0 0.95532,0.269984 0.3946,0.269984 0.5192,0.685345 l 4.11207,11.380875 q 0.33229,0.996865 0.5815,1.952195 0.24922,0.955328 0.43613,1.910657 0.20768,-0.955329 0.4569,-1.910657 0.24921,-0.95533 0.60227,-1.952195 l 4.19514,-11.380875 q 0.14537,-0.415361 0.51921,-0.685345 0.37382,-0.269984 0.89302,-0.269984 z"
             id="path5824"
             style="fill:#444444;fill-opacity:1;stroke-width:1.73066" />
          <path
             d="m 313.43149,-38.504346 v 21.30799 h -5.15046 v -21.30799 z m 0.70611,-6.209639 q 0,0.664577 -0.26998,1.246081 -0.26998,0.581505 -0.72688,1.017633 -0.43613,0.436129 -1.0384,0.706113 -0.60228,0.249216 -1.28762,0.249216 -0.66458,0 -1.26685,-0.249216 -0.5815,-0.269984 -1.01764,-0.706113 -0.43612,-0.436128 -0.70611,-1.017633 -0.24922,-0.581504 -0.24922,-1.246081 0,-0.685345 0.24922,-1.287617 0.26999,-0.602273 0.70611,-1.038401 0.43614,-0.436129 1.01764,-0.685345 0.60227,-0.269984 1.26685,-0.269984 0.68534,0 1.28762,0.269984 0.60227,0.249216 1.0384,0.685345 0.4569,0.436128 0.72688,1.038401 0.26998,0.602272 0.26998,1.287617 z"
             id="path5826"
             style="fill:#444444;fill-opacity:1;stroke-width:1.73066" />
          <path
             d="m 318.66503,-17.196356 v -21.30799 h 3.13597 q 0.99686,0 1.30838,0.93456 l 0.33229,1.578371 q 0.56073,-0.623041 1.16301,-1.142242 0.62304,-0.5192 1.30838,-0.893024 0.70611,-0.373825 1.49531,-0.581506 0.80994,-0.228448 1.76527,-0.228448 2.0145,0 3.30212,1.100705 1.30839,1.079938 1.9522,2.886756 0.49842,-1.05917 1.24607,-1.806818 0.74766,-0.768417 1.64068,-1.246082 0.89302,-0.477664 1.88989,-0.706113 1.01763,-0.228448 2.03526,-0.228448 1.76528,0 3.13597,0.539969 1.3707,0.539969 2.30525,1.57837 0.93457,1.038401 1.41224,2.533699 0.49842,1.495296 0.49842,3.426723 v 13.561518 h -5.12969 v -13.561518 q 0,-2.035267 -0.89303,-3.052899 -0.89303,-1.038401 -2.61677,-1.038401 -0.78919,0 -1.47453,0.269984 -0.66458,0.269984 -1.18378,0.789184 -0.49843,0.498433 -0.78918,1.26685 -0.29076,0.768416 -0.29076,1.765282 v 13.561518 h -5.15046 v -13.561518 q 0,-2.139107 -0.87226,-3.115203 -0.8515,-0.976097 -2.51294,-0.976097 -1.12147,0 -2.09757,0.560737 -0.95533,0.539968 -1.78604,1.495296 v 15.596785 z"
             id="path5828"
             style="fill:#444444;fill-opacity:1;stroke-width:1.73066" />
        </g>
      </g>
      <g
         id="g1499"
         transform="matrix(0.48590649,0,0,0.48590649,-104.47878,-90.142333)"
         style="font-weight:bold;font-size:33.4748px;font-family:Lato;-inkscape-font-specification:'Lato Bold';fill:#1a1a1a;stroke-width:1.39478" />
      <g
         id="g1218"
         transform="matrix(1.2659588,0,0,1.2659588,263.17406,84.157601)"
         style="font-weight:bold;font-size:33.4748px;font-family:Lato;-inkscape-font-specification:'Lato Bold';fill:#1a1a1a;stroke-width:1.39478">
        <g
           id="g394">
          <path
             d="m -79.426618,-124.3177 c 0,0 -2.2631,-3.04978 -3.35206,-3.8345 -1.09044,-0.78673 -2.74005,0.26607 -2.74005,0.26607 0,0 -0.73426,-1.80766 0.74449,-2.68505 1.47873,-0.87738 3.31693,-0.11733 4.77002,0.74279 3.22927,1.90848 6.316688,5.48474 6.316688,5.48474 l 2.797871,10.41739 -4.053679,1.58463 z"
             fill="#855c54"
             id="path907"
             style="stroke-width:0.345023" />
          <path
             d="m -69.482974,-137.63773 c -0.341281,0.34737 0.319112,0.60042 0.550466,0.73441 0.315098,0.1819 0.717234,0.54967 1.100279,0.96966 0.572831,0.62974 0.828104,0.40176 0.75216,0.007 -0.05366,-0.28033 -0.283674,-0.61525 -0.461862,-0.84644 -0.291454,-0.37815 -0.523983,-0.48938 -0.473038,-0.52865 0.08228,-0.0634 0.570142,0.35073 0.838897,0.65891 0.31146,0.3596 0.542212,0.78452 0.767103,0.6549 0.30495,-0.17569 0.191389,-0.64721 -0.130749,-1.10163 -0.253573,-0.35737 -0.568513,-0.67681 -0.539112,-0.69947 0.02743,-0.0211 0.415741,0.2355 0.780421,0.68837 0.210989,0.26212 0.518964,0.78681 0.716979,0.60609 0.252185,-0.23199 -0.240501,-1.20757 -0.787864,-1.70703 -0.446223,-0.40875 -1.169223,-0.68226 -1.46257,-0.528 -0.291403,0.15276 0.07103,0.47307 0.07103,0.47307 0,0 -0.486714,-0.32758 -0.884032,-0.0651 -0.364488,0.24027 -0.100073,0.55497 -0.100073,0.55497 0,0 -0.441622,-0.17182 -0.738013,0.12845 z"
             fill="#f8eac0"
             id="path921"
             style="stroke-width:0.345023" />
          <path
             d="m -65.215697,-130.12371 c 0,0 -1.944726,-2.23954 -2.666549,-3.17607 -0.721818,-0.93652 -3.733572,-3.76219 -1.596837,-5.32162 1.630507,-1.19105 3.035216,1.4865 3.035216,1.4865 l -0.04839,1.13664 c 0,0 4.374837,3.87698 5.634321,4.80198 2.52443,1.84896 2.216846,3.21662 2.216846,3.21662 l -2.963146,2.94281 z"
             fill="#865b52"
             id="path911"
             style="stroke-width:0.345023" />
          <g
             id="Page-1"
             stroke="none"
             stroke-width="1"
             fill="none"
             fill-rule="evenodd"
             sketch:type="MSPage"
             transform="matrix(0.04463193,0,0,0.04515958,-93.411516,-150.51774)"
             style="font-weight:bold;font-size:33.4748px;font-family:Lato;-inkscape-font-specification:'Lato Bold';fill:#1a1a1a;stroke-width:1.39478">
            <g
               id="mark-copy"
               sketch:type="MSLayerGroup"
               transform="translate(2,3)">
              <path
                 d="M 0,155.5704 155,-1 V 727 L 0,572.23792 Z"
                 id="Left---green"
                 fill="url(#linearGradient-1)"
                 sketch:type="MSShapeGroup"
                 style="fill:url(#linearGradient-1)" />
              <path
                 d="M 443.0604,156.9824 600,-1 596.81879,727 442,572.21994 Z"
                 id="Right---blue"
                 fill="url(#linearGradient-2)"
                 sketch:type="MSShapeGroup"
                 transform="matrix(-1,0,0,1,1042,0)"
                 style="fill:url(#linearGradient-2)" />
              <path
                 d="M 154.98629,0 558,615.1897 445.2246,728 42,114.17202 Z"
                 id="Cross---blue"
                 fill="url(#linearGradient-3)"
                 sketch:type="MSShapeGroup"
                 style="fill:url(#linearGradient-3)" />
              <path
                 d="M 155,283.83232 154.78675,308 31,124.71061 42.461949,113 Z"
                 id="Shadow"
                 fill-opacity="0.13"
                 fill="#000000"
                 sketch:type="MSShapeGroup" />
            </g>
          </g>
          <path
             d="m -69.342652,-121.84277 -0.01244,-0.87115 c 0,0 1.436557,-0.36076 2.138793,-0.98947 0.70221,-0.62871 2.328337,-2.45354 2.328337,-2.45354 l 2.484844,3.05378 -5.860937,3.06501 z"
             fill="#606468"
             id="path909"
             style="stroke-width:0.345023" />
          <path
             d="m -76.411158,-132.84131 6.503965,12.08953 c 0,0 1.473961,-0.82686 1.501296,-1.41947 0.02736,-0.59261 -0.350082,-2.09128 -1.696303,-3.9676 -0.648164,-0.90584 -2.769757,-3.53689 -2.769757,-3.53689 0,0 3.480703,2.06449 4.486577,2.74148 1.005873,0.67699 4.20381,3.39979 4.20381,3.39979 l 0.453274,-3.1196 -10.972552,-6.53726 z"
             fill="#865b52"
             id="path915"
             style="stroke-width:0.345023" />
          <path
             d="m -85.725228,-129.17923 c 0.47463,-0.17843 0.31727,0.72365 0.34615,0.96372 0.0289,0.24009 0.14895,0.56606 0.14895,0.56606 0,0 0.0435,-0.75809 0.15182,-1.17264 0.12248,-0.46918 0.45866,-0.94068 0.82222,-0.8742 0.48602,0.0876 0.28065,0.4208 0.14443,0.90057 -0.0454,0.15996 -0.0961,0.40205 -0.106,0.66885 -0.014,0.36681 0.009,0.76482 0.0186,0.96013 0.0198,0.33767 -0.0568,0.72461 -0.35531,0.82353 -0.19165,0.0634 -0.49758,-0.47539 -0.49758,-0.47539 0,0 0.18866,0.27312 -0.1294,0.31836 -0.31653,0.0472 -0.84192,-0.6628 -0.98175,-1.24527 -0.13583,-0.58551 -0.005,-1.26705 0.43785,-1.43368 z"
             fill="#f8eac0"
             id="path917"
             style="stroke-width:0.345023" />
          <path
             d="m -83.292368,-127.82188 c 0.1161,-0.99206 0.91721,-2.00303 0.30032,-2.03352 -0.6169,-0.0305 -1.06822,0.86701 -1.14234,1.73931 -0.0741,0.87229 0.29252,1.66406 0.59571,1.54281 0.2982,-0.12366 0.17735,-0.66137 0.24631,-1.2486 z"
             fill="#f8eac0"
             id="path919"
             style="stroke-width:0.345023" />
          <path
             d="m -59.500852,-130.60256 c -0.567906,0.57201 -0.418423,2.3463 -0.418423,2.3463 0,0 -2.655473,-1.35444 -4.461272,-1.98331 -1.8058,-0.62889 -6.33405,-2.47623 -7.183169,-3.08355 -0.849107,-0.60732 -1.296446,-1.25255 -1.048291,-1.49379 0.227704,-0.21919 -0.01138,-0.22548 -0.01138,-0.22548 0,0 -0.565899,-0.96925 -1.659379,-0.66989 -0.9436,0.25882 -1.18252,1.205 -1.18252,1.205 0,0 -0.6573,-0.168 -1.55855,0.52664 -0.90127,0.69464 -1.50533,1.7911 -0.84902,3.61513 0.5515,1.53003 2.29797,3.85678 2.90204,4.68106 0.60601,0.82279 1.695432,2.88454 1.934188,4.63687 0.235296,1.75188 0.236032,3.80323 0.621179,4.53392 0.385141,0.73067 1.263391,1.37174 0.701774,1.74525 -0.561619,0.37353 -1.369388,0.0873 -1.625733,-1.12058 -0.256332,-1.20784 -0.212787,-2.82486 -0.212787,-2.82486 l -1.857251,-4.95851 0.97229,-0.22157 c -0.45056,-1.00194 -1.26357,-2.51468 -4.32842,-1.85147 -3.06484,0.66322 -6.05133,4.27675 -4.63227,7.74282 0.46667,1.13631 1.15683,2.07227 1.7216,2.80504 0.95739,1.24217 2.58034,2.60226 3.86412,3.53041 1.9222,1.39178 3.82032,2.0432 4.500358,2.32172 1.415269,0.5801 3.442784,0.91314 3.566271,0.70865 0.137018,-0.22744 -0.158126,-0.6995 -0.158126,-0.6995 0,0 0.84906,0.22632 2.19481,0.18538 1.34575,-0.0409 3.327635,-0.13181 3.519322,-0.45445 0.19169,-0.32265 -0.620119,-0.57767 -0.620119,-0.57767 0,0 1.39428,-0.22515 2.577167,-0.72459 0.927499,-0.39318 2.662587,-1.64303 2.445165,-1.88459 -0.217377,-0.24159 -1.022155,-0.0336 -1.09161,-0.27362 -0.0675,-0.24155 0.605461,0.0643 2.267011,-1.43497 1.210671,-1.09552 2.994559,-3.52606 2.779259,-6.46766 -0.215292,-2.94161 -0.61465,-4.9793 -0.887109,-6.32152 -0.272452,-1.34222 -0.346544,-2.64993 -0.584722,-3.15345 -0.231687,-0.49916 -0.941424,-1.42001 -2.196424,-0.15914 z m -5.715385,5.78239 c 0.113121,0.32507 -0.490525,1.22757 -1.321822,1.89952 -0.832793,0.67002 -1.784954,0.99471 -2.301875,0.77787 -0.518883,-0.21534 -0.47173,-1.21986 -1.208716,-2.55696 -0.736976,-1.33711 -2.544529,-3.49185 -3.590001,-4.88477 -1.045447,-1.39294 -1.687907,-3.06524 -1.687907,-3.06524 0,0 1.02934,1.25856 1.560884,1.75773 0.474914,0.44598 1.07815,0.86801 1.889462,1.38577 0.596272,0.38057 2.664009,1.28852 4.088436,2.30191 1.426389,1.01186 2.403356,1.89854 2.571539,2.38417 z"
             fill="#ae9580"
             id="path923"
             style="stroke-width:0.345023" />
          <path
             d="m -79.264868,-122.81521 c -1.2349,0.83311 -1.29241,0.14662 -2.38289,0.89966 -1.09052,0.75301 -1.37802,3.08279 -0.24647,4.58736 1.20099,1.59475 3.85395,2.83243 6.78476,0.77966 1.12127,-0.78605 1.563469,-1.39555 1.563469,-1.39555 -0.06716,-1.64722 -0.06306,-3.0277 -0.279886,-4.24102 -0.134643,-0.75821 -0.381883,-1.27349 -0.644673,-1.80489 -0.23483,-0.47488 -0.57389,-0.82568 -1.57713,-0.9238 -2.05847,-0.20303 -2.19857,1.41032 -3.21718,2.09858 z"
             fill="#feeac7"
             id="path925"
             style="stroke-width:0.345023" />
          <path
             d="m -81.268008,-119.86276 1.56389,0.63107 c 0,0 -0.35159,0.61766 -0.4275,1.20398 -0.0759,0.58632 -0.154,2.06129 -0.154,2.06129 0,0 -0.66426,-0.35939 -1.05509,-0.73275 -0.39081,-0.37338 -0.63616,-0.74021 -0.63616,-0.74021 0,0 0.0447,-0.59036 0.23941,-1.20892 0.19473,-0.61856 0.46941,-1.21442 0.46941,-1.21442 z"
             fill="#5c6268"
             id="path927"
             style="stroke-width:0.345023" />
          <path
             d="m -76.406308,-123.28819 0.0485,1.54604 c 0,0 0.79291,0.0198 1.4064,0.13094 0.6135,0.11118 1.239863,0.2593 1.239863,0.2593 0,0 0.03118,-0.37694 -0.104561,-0.99066 -0.116782,-0.52838 -0.325012,-0.9363 -0.325012,-0.9363 0,0 -0.80804,-0.0799 -1.20105,-0.055 -0.39302,0.025 -1.06416,0.0456 -1.06416,0.0456 z"
             fill="#5c6268"
             id="path929"
             style="stroke-width:0.345023" />
          <ellipse
             cx="9.2516441"
             cy="-143.82793"
             rx="0.85094631"
             ry="0.8484726"
             fill="#010605"
             id="ellipse931"
             style="stroke-width:0.345023"
             transform="rotate(-37.622991)" />
          <ellipse
             cx="14.384518"
             cy="-143.63005"
             rx="0.83115673"
             ry="0.81384093"
             fill="#010605"
             id="ellipse933"
             style="stroke-width:0.345023"
             transform="rotate(-37.622991)" />
          <path
             d="m -78.543968,-121.42198 c -0.75549,0.45424 -0.77435,1.2402 -0.77435,1.2402 0,0 0.35456,0.13585 0.77685,0.26637 0.1644,0.0513 0.53271,0.17656 0.59614,0.25885 0.0634,0.0823 -0.24255,0.44304 -0.50195,0.62111 -0.49919,0.34105 -0.99095,0.12039 -1.08324,0.43826 -0.0908,0.31983 0.45573,0.49825 0.79674,0.42592 0.34094,-0.0723 0.68769,-0.23021 0.95742,-0.48806 0.31222,-0.29998 0.52305,-0.78418 0.52305,-0.78418 0,0 0.66119,-0.0255 0.88401,-0.12541 0.58781,-0.26254 0.82279,-0.60601 0.93369,-1.01321 0.0684,-0.25572 -0.006,-0.74159 -0.20444,-0.72316 -0.43584,0.0423 -0.22008,0.60999 -0.64132,0.93466 -0.4232,0.32618 -0.95466,0.20799 -0.95466,0.20799 0,0 0.0207,-0.41886 0.0586,-0.58857 0.0571,-0.25012 0.086,-0.80021 0.086,-0.80021 0,0 -0.58994,-0.38855 -1.45247,0.12944 z"
             fill="#010605"
             id="path935"
             style="stroke-width:0.345023" />
          <path
             d="m -69.909682,-111.45534 c -0.0091,0.39741 -1.709064,0.21789 -2.325633,0.0622 -0.616563,-0.15566 -1.588378,-0.3873 -1.460389,-0.92632 0.127988,-0.53901 1.244576,-0.0223 1.826146,0.14471 0.581581,0.16702 1.966136,0.48032 1.959876,0.71939 z"
             fill="#cdac93"
             id="path937"
             style="stroke-width:0.345023" />
          <path
             d="m -69.032109,-112.48464 c -0.07634,0.78027 1.311174,0.86643 2.416065,0.83312 1.104898,-0.0333 2.422676,-0.62113 2.411594,-0.86244 -0.01108,-0.2413 -1.218938,0.015 -2.424033,-0.009 -1.205104,-0.0237 -2.351641,-0.48614 -2.403626,0.038 z"
             fill="#cdac93"
             id="path939"
             style="stroke-width:0.345023" />
          <path
             d="m -66.244631,-113.62117 c 0.117932,0.46502 1.414007,0.52171 2.696257,-0.17299 1.282236,-0.69471 2.255238,-1.91624 2.002973,-2.17467 -0.21166,-0.21789 -0.666043,0.4852 -2.447491,1.33048 -1.367961,0.64833 -2.393742,0.45203 -2.251739,1.01718 z"
             fill="#cdac93"
             id="path941"
             style="stroke-width:0.345023" />
          <path
             d="m -65.339848,-116.00504 c 0.174372,0.31535 1.048361,0.14455 1.979551,-0.64499 0.931181,-0.78954 1.24989,-1.7254 1.063171,-1.89067 -0.186707,-0.16528 -0.884222,0.75322 -1.566257,1.29468 -0.68215,0.54129 -1.844919,0.57247 -1.476459,1.24099 z"
             fill="#cdac93"
             id="path943"
             style="stroke-width:0.345023" />
          <path
             d="m -62.028472,-113.57269 c 0.361737,0.48948 1.748447,-0.68549 2.406423,-1.70795 0.807816,-1.2535 0.694921,-2.61563 0.401976,-2.65532 -0.291417,-0.0377 -0.293738,1.17897 -1.222903,2.34797 -0.429786,0.54051 -1.944186,1.52965 -1.585496,2.0153 z"
             fill="#cdac93"
             id="path945"
             style="stroke-width:0.345023" />
        </g>
      </g>
    </g>
  </g>
</svg>
