<?xml version="1.0" encoding="UTF-8" standalone="no"?>
<svg
   width="600"
   height="71.653839"
   viewBox="0 0 600.00003 71.653839"
   version="1.1"
   id="svg95"
   sodipodi:docname="nvim-haskell.svg"
   inkscape:version="1.2.2 (b0a8486541, 2022-12-01)"
   xmlns:inkscape="http://www.inkscape.org/namespaces/inkscape"
   xmlns:sodipodi="http://sodipodi.sourceforge.net/DTD/sodipodi-0.dtd"
   xmlns:xlink="http://www.w3.org/1999/xlink"
   xmlns="http://www.w3.org/2000/svg"
   xmlns:svg="http://www.w3.org/2000/svg"
   xmlns:rdf="http://www.w3.org/1999/02/22-rdf-syntax-ns#"
   xmlns:cc="http://creativecommons.org/ns#"
   xmlns:dc="http://purl.org/dc/elements/1.1/">
  <sodipodi:namedview
     id="namedview97"
     pagecolor="#505050"
     bordercolor="#ffffff"
     borderopacity="1"
     inkscape:showpageshadow="0"
     inkscape:pageopacity="0"
     inkscape:pagecheckerboard="1"
     inkscape:deskcolor="#505050"
     showgrid="false"
     inkscape:zoom="1.3188011"
     inkscape:cx="400.74277"
     inkscape:cy="22.747934"
     inkscape:window-width="1920"
     inkscape:window-height="1080"
     inkscape:window-x="0"
     inkscape:window-y="0"
     inkscape:window-maximized="1"
     inkscape:current-layer="g5925" />
  <title
     id="title70">neovim-mark@2x</title>
  <description>Created with Sketch (http://www.bohemiancoding.com/sketch)</description>
  <defs
     id="defs87">
    <linearGradient
       inkscape:collect="always"
       id="linearGradient10331">
      <stop
         style="stop-color:#159ce0;stop-opacity:0.80000001;"
         offset="0"
         id="stop10327" />
      <stop
         style="stop-color:#105db5;stop-opacity:0.83529413;"
         offset="1"
         id="stop10329" />
    </linearGradient>
    <linearGradient
       inkscape:collect="always"
       id="linearGradient7287">
      <stop
         style="stop-color:#7ab442;stop-opacity:0.80000001;"
         offset="0"
         id="stop7283" />
      <stop
         style="stop-color:#499641;stop-opacity:0.8509804;"
         offset="1"
         id="stop7285" />
    </linearGradient>
    <linearGradient
       inkscape:collect="always"
       id="linearGradient4036">
      <stop
         style="stop-color:#7bb442;stop-opacity:0.80000001;"
         offset="0"
         id="stop4032" />
      <stop
         style="stop-color:#459440;stop-opacity:0.8392157;"
         offset="1"
         id="stop4034" />
    </linearGradient>
    <linearGradient
       inkscape:collect="always"
       id="linearGradient2165">
      <stop
         style="stop-color:#105bb4;stop-opacity:0.80000001;"
         offset="0"
         id="stop2161" />
      <stop
         style="stop-color:#159ee1;stop-opacity:0.80784315;"
         offset="1"
         id="stop2163" />
    </linearGradient>
    <linearGradient
       x1="167.95833"
       y1="-0.46142399"
       x2="167.95833"
       y2="335.45523"
       id="linearGradient-1"
       gradientTransform="scale(0.46142398,2.1672042)"
       gradientUnits="userSpaceOnUse">
      <stop
         stop-color="#16B0ED"
         stop-opacity="0.800235524"
         offset="0%"
         id="stop72" />
      <stop
         stop-color="#0F59B2"
         stop-opacity="0.83700023"
         offset="100%"
         id="stop74" />
    </linearGradient>
    <linearGradient
       x1="1118.3427"
       y1="-0.46586797"
       x2="1118.3427"
       y2="338.68604"
       id="linearGradient-2"
       gradientTransform="scale(0.46586797,2.1465309)"
       gradientUnits="userSpaceOnUse">
      <stop
         stop-color="#7DB643"
         offset="0%"
         id="stop77" />
      <stop
         stop-color="#367533"
         offset="100%"
         id="stop79" />
    </linearGradient>
    <linearGradient
       x1="356.33795"
       y1="0"
       x2="356.33795"
       y2="612.90131"
       id="linearGradient-3"
       gradientTransform="scale(0.84189739,1.1877932)"
       gradientUnits="userSpaceOnUse">
      <stop
         stop-color="#88C649"
         stop-opacity="0.8"
         offset="0%"
         id="stop82" />
      <stop
         stop-color="#439240"
         stop-opacity="0.84"
         offset="100%"
         id="stop84" />
    </linearGradient>
    <linearGradient
       inkscape:collect="always"
       xlink:href="#linearGradient2165"
       id="linearGradient2167"
       x1="0"
       y1="127.91282"
       x2="147.60104"
       y2="127.91282"
       gradientUnits="userSpaceOnUse" />
    <linearGradient
       inkscape:collect="always"
       xlink:href="#linearGradient4036"
       id="linearGradient4038"
       x1="85.216064"
       y1="127.91282"
       x2="317.15375"
       y2="127.91282"
       gradientUnits="userSpaceOnUse" />
    <linearGradient
       inkscape:collect="always"
       xlink:href="#linearGradient7287"
       id="linearGradient7289"
       x1="218.15314"
       y1="93.738365"
       x2="358.72556"
       y2="93.738365"
       gradientUnits="userSpaceOnUse" />
    <linearGradient
       inkscape:collect="always"
       xlink:href="#linearGradient10331"
       id="linearGradient10333"
       x1="260.32486"
       y1="157.69218"
       x2="358.72556"
       y2="157.69218"
       gradientUnits="userSpaceOnUse" />
    <linearGradient
       x1="49.021549"
       y1="-0.079835393"
       x2="49.021549"
       y2="97.845657"
       id="linearGradient-1-2"
       gradientTransform="scale(0.46153975,2.1666606)"
       gradientUnits="userSpaceOnUse">
      <stop
         stop-color="#16B0ED"
         stop-opacity="0.800235524"
         offset="0%"
         id="stop5136" />
      <stop
         stop-color="#0F59B2"
         stop-opacity="0.83700023"
         offset="100%"
         id="stop5138" />
    </linearGradient>
    <linearGradient
       x1="326.17365"
       y1="-0.069164939"
       x2="326.17365"
       y2="98.851547"
       id="linearGradient-2-2"
       gradientTransform="scale(0.46628455,2.1446132)"
       gradientUnits="userSpaceOnUse">
      <stop
         stop-color="#7DB643"
         offset="0%"
         id="stop5141" />
      <stop
         stop-color="#367533"
         offset="100%"
         id="stop5143" />
    </linearGradient>
    <linearGradient
       x1="103.88479"
       y1="-0.11508822"
       x2="103.88479"
       y2="178.55785"
       id="linearGradient-3-8"
       gradientTransform="scale(0.84203823,1.1875945)"
       gradientUnits="userSpaceOnUse">
      <stop
         stop-color="#88C649"
         stop-opacity="0.8"
         offset="0%"
         id="stop5146" />
      <stop
         stop-color="#439240"
         stop-opacity="0.84"
         offset="100%"
         id="stop5148" />
    </linearGradient>
  </defs>
  <metadata
     id="metadata14713">
    <rdf:RDF>
      <cc:Work
         rdf:about="">
        <dc:title>neovim-mark@2x</dc:title>
      </cc:Work>
    </rdf:RDF>
  </metadata>
  <g
     aria-label="haskell-tools.nvim"
     id="text4483"
     style="font-weight:bold;font-size:33.4748px;font-family:Lato;-inkscape-font-specification:'Lato Bold';fill:#1a1a1a;stroke-width:1.39478"
     transform="translate(307.65719,89.970579)">
    <g
       id="g5925"
       transform="matrix(1.6576683,0,0,1.6576683,-217.36825,0)">
      <g
         id="g8863"
         transform="matrix(0.81614217,0,0,0.81614217,-10.014267,-7.820178)">
        <g
           id="Page-1-5"
           stroke="none"
           stroke-width="1"
           fill="none"
           fill-rule="evenodd"
           transform="matrix(0.20702936,0,0,0.20702936,-54.467434,-56.920479)">
          <g
             id="haskell">
            <polygon
               id="Path"
               fill="#453a62"
               points="0,255.82564 84.343456,127.91455 0,0 63.257592,0 147.60105,127.91455 63.257592,255.82564 "
               style="fill:url(#linearGradient2167);fill-opacity:1" />
            <polygon
               id="polygon259"
               fill="#5e5086"
               points="201.19173,175.88293 148.47025,255.82564 85.216068,255.82564 169.55952,127.91455 85.216068,0 148.47366,0 317.15375,255.82564 253.90298,255.82564 "
               style="fill:url(#linearGradient4038);fill-opacity:1" />
            <polygon
               id="polygon261"
               fill="#8f4e8b"
               points="358.72556,179.01415 288.43935,179.01415 288.43935,179.01071 260.32486,136.37022 358.72556,136.37022 "
               style="fill:url(#linearGradient10333);fill-opacity:1" />
            <polygon
               id="polygon263"
               fill="#8f4e8b"
               points="358.72556,72.418124 358.72556,115.0586 246.26762,115.0586 218.15313,72.418124 "
               style="fill:url(#linearGradient7289);fill-opacity:1" />
          </g>
        </g>
        <g
           id="g8883"
           transform="matrix(1.1279055,0,0,1.1279055,-4.1519251,6.1388671)">
          <path
             d="m 34.454608,-34.37151 q 1.432994,-1.744514 3.26058,-2.782915 1.848353,-1.038401 4.132835,-1.038401 1.702978,0 2.990596,0.539969 1.308385,0.539968 2.159875,1.557601 0.851488,1.017633 1.287616,2.450627 0.436129,1.432994 0.436129,3.23981 v 13.208463 h -1.993731 v -13.208463 q 0,-2.907522 -1.329152,-4.548195 -1.329154,-1.661442 -4.049764,-1.661442 -2.014499,0 -3.77978,1.038401 -1.744515,1.017632 -3.115204,2.845219 v 15.53448 h -1.993729 v -30.217472 h 1.993729 z"
             style="font-weight:300;-inkscape-font-specification:'Lato Light';fill:#444444;fill-opacity:1;stroke-width:1.73066"
             id="path5794" />
          <path
             d="m 66.873457,-27.185775 q -2.94906,0.103844 -5.088166,0.477665 -2.118338,0.353056 -3.509795,0.976096 -1.370689,0.623041 -2.035266,1.495298 -0.664576,0.85149 -0.664576,1.952195 0,1.038401 0.332288,1.806818 0.353056,0.747648 0.913793,1.246081 0.581504,0.477664 1.329153,0.706112 0.747649,0.228449 1.557601,0.228449 1.204545,0 2.201411,-0.249217 1.017633,-0.269984 1.869122,-0.72688 0.872256,-0.477665 1.619906,-1.121474 0.747648,-0.643808 1.474529,-1.391458 z m -12.149293,-7.746472 q 1.619906,-1.619905 3.405956,-2.450626 1.786049,-0.830721 4.049764,-0.830721 1.661442,0 2.907523,0.539968 1.246081,0.519201 2.056034,1.516067 0.83072,0.976096 1.246081,2.388322 0.41536,1.391456 0.41536,3.115203 v 13.457678 h -0.789184 q -0.623041,0 -0.768417,-0.581505 l -0.290752,-2.658307 q -0.851489,0.830721 -1.702978,1.495297 -0.830721,0.664577 -1.744514,1.121474 -0.913792,0.456897 -1.972962,0.706112 -1.059169,0.249217 -2.326018,0.249217 -1.059169,0 -2.056034,-0.311521 -0.996865,-0.31152 -1.786049,-0.955328 -0.768417,-0.64381 -1.246082,-1.640674 -0.456896,-1.017633 -0.456896,-2.429859 0,-1.308385 0.747648,-2.429858 0.74765,-1.121473 2.346786,-1.952194 1.599138,-0.830721 4.0913,-1.329154 2.512932,-0.498432 6.022727,-0.581504 v -2.159874 q 0,-2.865988 -1.246082,-4.402821 -1.225312,-1.557601 -3.655171,-1.557601 -1.495298,0 -2.554466,0.41536 -1.038401,0.415361 -1.765282,0.913792 -0.726881,0.498433 -1.183777,0.913794 -0.456897,0.41536 -0.768417,0.41536 -0.228448,0 -0.373825,-0.103843 -0.145376,-0.103844 -0.249216,-0.269985 z"
             style="font-weight:300;-inkscape-font-specification:'Lato Light';fill:#444444;fill-opacity:1;stroke-width:1.73066"
             id="path5796" />
          <path
             d="m 86.769191,-35.306071 q -0.166145,0.290753 -0.477666,0.290753 -0.228447,0 -0.581504,-0.249217 -0.353057,-0.269984 -0.955328,-0.581504 -0.581505,-0.332289 -1.453762,-0.581506 -0.872257,-0.269984 -2.118338,-0.269984 -1.121474,0 -2.056035,0.332289 -0.913792,0.311521 -1.578369,0.851489 -0.643808,0.539968 -0.996865,1.266849 -0.353056,0.706113 -0.353056,1.495297 0,0.976098 0.498433,1.619906 0.498431,0.643809 1.287616,1.100706 0.809953,0.456895 1.848354,0.789184 1.038401,0.332288 2.09757,0.664577 1.079937,0.332288 2.118338,0.747649 1.038401,0.394593 1.827586,0.996864 0.809953,0.602274 1.308386,1.474531 0.498432,0.872256 0.498432,2.118337 0,1.349921 -0.477664,2.512931 -0.477664,1.163009 -1.412225,2.014498 -0.913794,0.851489 -2.263715,1.349922 -1.349922,0.498432 -3.094435,0.498432 -2.180642,0 -3.759012,-0.685345 -1.578369,-0.706113 -2.824451,-1.827585 l 0.456897,-0.706114 q 0.103844,-0.166144 0.228448,-0.249216 0.145376,-0.08307 0.373824,-0.08307 0.269984,0 0.643809,0.332288 0.394592,0.332289 1.038401,0.726881 0.643809,0.373824 1.57837,0.706113 0.955328,0.332288 2.346786,0.332288 1.308385,0 2.305251,-0.353057 0.996865,-0.373824 1.661442,-0.996864 0.664575,-0.623041 0.996864,-1.453762 0.353057,-0.851488 0.353057,-1.786049 0,-1.038401 -0.498433,-1.723746 -0.498433,-0.685346 -1.308385,-1.16301 -0.809953,-0.477667 -1.848355,-0.809955 -1.017632,-0.332289 -2.097569,-0.664577 -1.079938,-0.332289 -2.118339,-0.726881 -1.017633,-0.394592 -1.827585,-0.996864 -0.809954,-0.602273 -1.308385,-1.453762 -0.498433,-0.872257 -0.498433,-2.159875 0,-1.100704 0.477664,-2.118338 0.477664,-1.017632 1.349921,-1.786049 0.893025,-0.768417 2.159875,-1.225314 1.266849,-0.456896 2.845219,-0.456896 1.88989,0 3.343651,0.539969 1.474529,0.539968 2.679075,1.661441 z"
             style="font-weight:300;-inkscape-font-specification:'Lato Light';fill:#444444;fill-opacity:1;stroke-width:1.73066"
             id="path5798" />
          <path
             d="m 95.0556,-47.413828 v 18.421236 h 0.955328 q 0.290753,0 0.539969,-0.08307 0.269984,-0.08307 0.581505,-0.394593 l 8.286448,-7.871082 q 0.20767,-0.249216 0.45689,-0.373824 0.24922,-0.145376 0.62304,-0.145376 h 1.74451 l -9.117164,8.660265 q -0.37382,0.436128 -0.809947,0.685344 0.332283,0.166144 0.560742,0.394592 0.249205,0.20768 0.477664,0.498433 l 9.574055,10.425547 h -1.72375 q -0.29075,0 -0.53997,-0.08307 -0.22844,-0.103844 -0.43612,-0.394591 l -8.681038,-9.304075 q -0.166144,-0.186911 -0.332289,-0.31152 -0.145375,-0.124608 -0.31152,-0.186912 -0.166144,-0.08307 -0.394592,-0.103844 -0.20768,-0.04153 -0.5192,-0.04153 H 95.0556 v 10.425544 h -1.993731 v -30.217474 z"
             style="font-weight:300;-inkscape-font-specification:'Lato Light';fill:#444444;fill-opacity:1;stroke-width:1.73066"
             id="path5800" />
          <path
             d="m 125.99996,-29.615633 q 0,-1.661441 -0.47766,-2.969828 -0.45689,-1.329152 -1.30839,-2.242946 -0.85148,-0.913792 -2.03526,-1.391457 -1.16302,-0.498432 -2.57524,-0.498432 -1.59914,0 -2.86598,0.498432 -1.26685,0.498433 -2.20142,1.432993 -0.91379,0.934561 -1.47452,2.242947 -0.56074,1.308385 -0.74766,2.928291 z m -13.78997,1.266849 v 0.394593 q 0,2.326017 0.53998,4.091299 0.53996,1.765282 1.53682,2.969828 0.99687,1.183776 2.40909,1.78605 1.41224,0.602273 3.15675,0.602273 1.5576,0 2.69984,-0.332289 1.14225,-0.353057 1.91066,-0.768417 0.78918,-0.436128 1.24607,-0.768416 0.45691,-0.353057 0.66458,-0.353057 0.26999,0 0.41537,0.20768 l 0.53996,0.664577 q -0.49843,0.623041 -1.32915,1.163009 -0.80995,0.539968 -1.82758,0.934561 -0.99687,0.373824 -2.15987,0.602273 -1.14225,0.228448 -2.30525,0.228448 -2.11835,0 -3.86286,-0.726881 -1.74451,-0.747648 -2.9906,-2.159875 -1.24608,-1.412225 -1.93142,-3.447491 -0.66458,-2.056034 -0.66458,-4.693572 0,-2.222179 0.62304,-4.0913 0.64381,-1.889891 1.82759,-3.239813 1.20454,-1.370688 2.92829,-2.139105 1.74452,-0.768417 3.94592,-0.768417 1.74451,0 3.23982,0.602273 1.49529,0.602273 2.596,1.765281 1.1007,1.142242 1.72375,2.824451 0.6438,1.68221 0.6438,3.862853 0,0.456896 -0.12461,0.62304 -0.1246,0.166144 -0.41536,0.166144 z"
             style="font-weight:300;-inkscape-font-specification:'Lato Light';fill:#444444;fill-opacity:1;stroke-width:1.73066"
             id="path5802" />
          <path
             d="m 135.34556,-47.413828 v 30.217472 h -1.99373 v -30.217472 z"
             style="font-weight:300;-inkscape-font-specification:'Lato Light';fill:#444444;fill-opacity:1;stroke-width:1.73066"
             id="path5804" />
          <path
             d="m 144.52505,-47.413828 v 30.217472 h -1.99373 v -30.217472 z"
             style="font-weight:300;-inkscape-font-specification:'Lato Light';fill:#444444;fill-opacity:1;stroke-width:1.73066"
             id="path5806" />
          <path
             d="m 150.98394,-30.363282 h 9.65713 v 1.68221 h -9.65713 z"
             style="font-weight:300;-inkscape-font-specification:'Lato Light';fill:#444444;fill-opacity:1;stroke-width:1.73066"
             id="path5808" />
          <path
             d="m 172.54119,-16.864068 q -2.09758,0 -3.28135,-1.163009 -1.16302,-1.16301 -1.16302,-3.592868 v -14.122254 h -2.96983 q -0.22844,0 -0.37382,-0.124609 -0.14537,-0.124607 -0.14537,-0.353056 v -0.768416 l 3.53056,-0.249217 0.49843,-7.393416 q 0.0416,-0.186912 0.16614,-0.332288 0.12462,-0.145376 0.35306,-0.145376 h 0.93456 v 7.891848 h 6.52117 v 1.47453 h -6.52117 v 14.018414 q 0,0.851489 0.20769,1.474529 0.22845,0.602274 0.60227,0.996865 0.39459,0.394593 0.91379,0.581505 0.5192,0.186912 1.12148,0.186912 0.74764,0 1.28762,-0.20768 0.53996,-0.228448 0.93455,-0.477664 0.3946,-0.269984 0.64381,-0.477664 0.24922,-0.228449 0.39459,-0.228449 0.16615,0 0.3323,0.20768 l 0.53996,0.872257 q -0.78918,0.872257 -2.0145,1.412225 -1.20455,0.519201 -2.51292,0.519201 z"
             style="font-weight:300;-inkscape-font-specification:'Lato Light';fill:#444444;fill-opacity:1;stroke-width:1.73066"
             id="path5810" />
          <path
             d="m 189.23873,-38.192826 q 2.22218,0 3.9667,0.768417 1.76528,0.747649 2.96982,2.139105 1.20454,1.391458 1.82759,3.36442 0.64381,1.952195 0.64381,4.382053 0,2.429858 -0.64381,4.382052 -0.62305,1.952195 -1.82759,3.343651 -1.20454,1.391458 -2.96982,2.139108 -1.74452,0.747648 -3.9667,0.747648 -2.22218,0 -3.98746,-0.747648 -1.74452,-0.74765 -2.96983,-2.139108 -1.20454,-1.391456 -1.84835,-3.343651 -0.62305,-1.952194 -0.62305,-4.382052 0,-2.429858 0.62305,-4.382053 0.64381,-1.972962 1.84835,-3.36442 1.22531,-1.391456 2.96983,-2.139105 1.76528,-0.768417 3.98746,-0.768417 z m 0,19.708852 q 1.84835,0 3.21904,-0.62304 1.39147,-0.643809 2.30525,-1.827586 0.93457,-1.183778 1.39146,-2.845219 0.4569,-1.682209 0.4569,-3.759012 0,-2.056034 -0.4569,-3.738243 -0.45689,-1.682211 -1.39146,-2.865988 -0.91378,-1.204545 -2.30525,-1.848353 -1.37069,-0.64381 -3.21904,-0.64381 -1.84835,0 -3.23981,0.64381 -1.37069,0.643808 -2.30525,1.848353 -0.9138,1.183777 -1.39146,2.865988 -0.45689,1.682209 -0.45689,3.738243 0,2.076803 0.45689,3.759012 0.47766,1.661441 1.39146,2.845219 0.93456,1.183777 2.30525,1.827586 1.39146,0.62304 3.23981,0.62304 z"
             style="font-weight:300;-inkscape-font-specification:'Lato Light';fill:#444444;fill-opacity:1;stroke-width:1.73066"
             id="path5812" />
          <path
             d="m 212.41588,-38.192826 q 2.22217,0 3.96668,0.768417 1.76529,0.747649 2.96983,2.139105 1.20455,1.391458 1.82759,3.36442 0.64381,1.952195 0.64381,4.382053 0,2.429858 -0.64381,4.382052 -0.62304,1.952195 -1.82759,3.343651 -1.20454,1.391458 -2.96983,2.139108 -1.74451,0.747648 -3.96668,0.747648 -2.22219,0 -3.98746,-0.747648 -1.74453,-0.74765 -2.96983,-2.139108 -1.20455,-1.391456 -1.84836,-3.343651 -0.62304,-1.952194 -0.62304,-4.382052 0,-2.429858 0.62304,-4.382053 0.64381,-1.972962 1.84836,-3.36442 1.2253,-1.391456 2.96983,-2.139105 1.76527,-0.768417 3.98746,-0.768417 z m 0,19.708852 q 1.84835,0 3.21903,-0.62304 1.39146,-0.643809 2.30525,-1.827586 0.93457,-1.183778 1.39146,-2.845219 0.4569,-1.682209 0.4569,-3.759012 0,-2.056034 -0.4569,-3.738243 -0.45689,-1.682211 -1.39146,-2.865988 -0.91379,-1.204545 -2.30525,-1.848353 -1.37068,-0.64381 -3.21903,-0.64381 -1.84836,0 -3.23982,0.64381 -1.37069,0.643808 -2.30525,1.848353 -0.91379,1.183777 -1.39146,2.865988 -0.4569,1.682209 -0.4569,3.738243 0,2.076803 0.4569,3.759012 0.47767,1.661441 1.39146,2.845219 0.93456,1.183777 2.30525,1.827586 1.39146,0.62304 3.23982,0.62304 z"
             style="font-weight:300;-inkscape-font-specification:'Lato Light';fill:#444444;fill-opacity:1;stroke-width:1.73066"
             id="path5814" />
          <path
             d="m 229.59104,-47.413828 v 30.217472 h -1.99373 v -30.217472 z"
             style="font-weight:300;-inkscape-font-specification:'Lato Light';fill:#444444;fill-opacity:1;stroke-width:1.73066"
             id="path5816" />
          <path
             d="m 247.95,-35.306071 q -0.16615,0.290753 -0.47767,0.290753 -0.22844,0 -0.58149,-0.249217 -0.35307,-0.269984 -0.95533,-0.581504 -0.58151,-0.332289 -1.45377,-0.581506 -0.87225,-0.269984 -2.11834,-0.269984 -1.12147,0 -2.05603,0.332289 -0.9138,0.311521 -1.57837,0.851489 -0.64381,0.539968 -0.99687,1.266849 -0.35305,0.706113 -0.35305,1.495297 0,0.976098 0.49842,1.619906 0.49844,0.643809 1.28762,1.100706 0.80996,0.456895 1.84836,0.789184 1.0384,0.332288 2.09757,0.664577 1.07993,0.332288 2.11833,0.747649 1.03841,0.394593 1.82759,0.996864 0.80995,0.602274 1.30839,1.474531 0.49843,0.872256 0.49843,2.118337 0,1.349921 -0.47766,2.512931 -0.47766,1.163009 -1.41222,2.014498 -0.9138,0.851489 -2.26372,1.349922 -1.34992,0.498432 -3.09443,0.498432 -2.18065,0 -3.75901,-0.685345 -1.57838,-0.706113 -2.82446,-1.827585 l 0.45689,-0.706114 q 0.10386,-0.166144 0.22845,-0.249216 0.14539,-0.08307 0.37383,-0.08307 0.26998,0 0.64381,0.332288 0.39459,0.332289 1.0384,0.726881 0.64381,0.373824 1.57837,0.706113 0.95533,0.332288 2.34679,0.332288 1.30838,0 2.30525,-0.353057 0.99686,-0.373824 1.66144,-0.996864 0.66458,-0.623041 0.99686,-1.453762 0.35306,-0.851488 0.35306,-1.786049 0,-1.038401 -0.49844,-1.723746 -0.49843,-0.685346 -1.30837,-1.16301 -0.80996,-0.477664 -1.84836,-0.809952 -1.01763,-0.332289 -2.09757,-0.664577 -1.07993,-0.332289 -2.11834,-0.726881 -1.01764,-0.394592 -1.82759,-0.996864 -0.80994,-0.602273 -1.30838,-1.453762 -0.49844,-0.872257 -0.49844,-2.159875 0,-1.100704 0.47767,-2.118338 0.47766,-1.017632 1.34992,-1.786049 0.89303,-0.768417 2.15987,-1.225314 1.26685,-0.456896 2.84523,-0.456896 1.88989,0 3.34365,0.539969 1.47452,0.539968 2.67907,1.661441 z"
             style="font-weight:300;-inkscape-font-specification:'Lato Light';fill:#444444;fill-opacity:1;stroke-width:1.73066"
             id="path5818" />
          <path
             d="m 252.62277,-20.020808 q 0,-0.643808 0.22845,-1.225312 0.24921,-0.581505 0.66458,-0.996865 0.41536,-0.415361 0.99686,-0.664577 0.5815,-0.249217 1.24608,-0.249217 0.66457,0 1.22531,0.249217 0.58151,0.249216 0.99687,0.664577 0.43612,0.41536 0.68534,0.996865 0.24922,0.581504 0.24922,1.225312 0,0.664577 -0.24922,1.246081 -0.24922,0.560737 -0.68534,0.976098 -0.41536,0.41536 -0.99687,0.643809 -0.56074,0.249215 -1.22531,0.249215 -0.66458,0 -1.24608,-0.249215 -0.5815,-0.228449 -0.99686,-0.643809 -0.41537,-0.415361 -0.66458,-0.976098 -0.22845,-0.581504 -0.22845,-1.246081 z"
             id="path5820"
             style="fill:#444444;fill-opacity:1;stroke-width:1.73066" />
          <path
             d="m 268.03262,-35.887575 q 0.64381,-0.64381 1.34992,-1.183778 0.72688,-0.560737 1.51606,-0.934561 0.80996,-0.394592 1.72374,-0.602273 0.9138,-0.228448 1.99373,-0.228448 1.74451,0 3.09443,0.602273 1.34994,0.581505 2.24295,1.661442 0.9138,1.059169 1.37069,2.554467 0.47767,1.474529 0.47767,3.260579 v 13.561518 h -5.12971 v -13.561518 q 0,-1.952194 -0.89301,-3.011363 -0.89303,-1.079937 -2.72061,-1.079937 -1.32917,0 -2.49217,0.602272 -1.16302,0.602273 -2.20142,1.640674 v 15.409872 h -5.12969 v -21.30799 h 3.13596 q 0.99688,0 1.30839,0.93456 z"
             id="path5822"
             style="fill:#444444;fill-opacity:1;stroke-width:1.73066" />
          <path
             d="m 305.39428,-38.504346 -8.45258,21.30799 h -4.65204 l -8.45258,-21.30799 h 4.23668 q 0.58149,0 0.95532,0.269984 0.3946,0.269984 0.5192,0.685345 l 4.11207,11.380875 q 0.33229,0.996865 0.5815,1.952195 0.24922,0.955328 0.43613,1.910657 0.20768,-0.955329 0.4569,-1.910657 0.24921,-0.95533 0.60227,-1.952195 l 4.19514,-11.380875 q 0.14537,-0.415361 0.51921,-0.685345 0.37382,-0.269984 0.89302,-0.269984 z"
             id="path5824"
             style="fill:#444444;fill-opacity:1;stroke-width:1.73066" />
          <path
             d="m 313.43149,-38.504346 v 21.30799 h -5.15046 v -21.30799 z m 0.70611,-6.209639 q 0,0.664577 -0.26998,1.246081 -0.26998,0.581505 -0.72688,1.017633 -0.43613,0.436129 -1.0384,0.706113 -0.60228,0.249216 -1.28762,0.249216 -0.66458,0 -1.26685,-0.249216 -0.5815,-0.269984 -1.01764,-0.706113 -0.43612,-0.436128 -0.70611,-1.017633 -0.24922,-0.581504 -0.24922,-1.246081 0,-0.685345 0.24922,-1.287617 0.26999,-0.602273 0.70611,-1.038401 0.43614,-0.436129 1.01764,-0.685345 0.60227,-0.269984 1.26685,-0.269984 0.68534,0 1.28762,0.269984 0.60227,0.249216 1.0384,0.685345 0.4569,0.436128 0.72688,1.038401 0.26998,0.602272 0.26998,1.287617 z"
             id="path5826"
             style="fill:#444444;fill-opacity:1;stroke-width:1.73066" />
          <path
             d="m 318.66503,-17.196356 v -21.30799 h 3.13597 q 0.99686,0 1.30838,0.93456 l 0.33229,1.578371 q 0.56073,-0.623041 1.16301,-1.142242 0.62304,-0.5192 1.30838,-0.893024 0.70611,-0.373825 1.49531,-0.581506 0.80994,-0.228448 1.76527,-0.228448 2.0145,0 3.30212,1.100705 1.30839,1.079938 1.9522,2.886756 0.49842,-1.05917 1.24607,-1.806818 0.74766,-0.768417 1.64068,-1.246082 0.89302,-0.477664 1.88989,-0.706113 1.01763,-0.228448 2.03526,-0.228448 1.76528,0 3.13597,0.539969 1.3707,0.539969 2.30525,1.57837 0.93457,1.038401 1.41224,2.533699 0.49842,1.495296 0.49842,3.426723 v 13.561518 h -5.12969 v -13.561518 q 0,-2.035267 -0.89303,-3.052899 -0.89303,-1.038401 -2.61677,-1.038401 -0.78919,0 -1.47453,0.269984 -0.66458,0.269984 -1.18378,0.789184 -0.49843,0.498433 -0.78918,1.26685 -0.29076,0.768416 -0.29076,1.765282 v 13.561518 h -5.15046 v -13.561518 q 0,-2.139107 -0.87226,-3.115203 -0.8515,-0.976097 -2.51294,-0.976097 -1.12147,0 -2.09757,0.560737 -0.95533,0.539968 -1.78604,1.495296 v 15.596785 z"
             id="path5828"
             style="fill:#444444;fill-opacity:1;stroke-width:1.73066" />
        </g>
      </g>
    </g>
  </g>
</svg>
